<?xml version="1.0" encoding="utf-8"?>
<!-- Generator: Adobe Illustrator 15.0.1, SVG Export Plug-In . SVG Version: 6.00 Build 0)  -->
<!DOCTYPE svg PUBLIC "-//W3C//DTD SVG 1.1//EN" "http://www.w3.org/Graphics/SVG/1.1/DTD/svg11.dtd">
<svg version="1.1" xmlns="http://www.w3.org/2000/svg" xmlns:xlink="http://www.w3.org/1999/xlink" x="0px" y="0px" width="405px"
	 height="405px" viewBox="0 0 405 405" enable-background="new 0 0 405 405" xml:space="preserve">
<path fill-rule="evenodd" clip-rule="evenodd" d="M11.681,5c-3.675,0-6.696,2.977-6.696,6.659v381.667
	c0,3.668,3.021,6.674,6.696,6.674h381.645c3.712,0,6.688-3.006,6.688-6.674V11.659c0-3.682-2.977-6.659-6.688-6.659H11.681
	 M386.637,386.638H18.362V18.363h368.274V386.638z"/>
<path fill-rule="evenodd" clip-rule="evenodd" d="M71.805,309.183h7.034c2.63,0,5.847,0,7.448,2.345
	c0.586,0.872,1.157,1.909,1.292,3.983c0,3.683-1.601,5.893-5.381,6.479c-1.038,0.12-1.744,0.285-3.803,0.285h-6.591V309.183
	 M60.697,301.366v42.854h11.108v-14.009h7.328c6.433-0.15,12.701-0.421,16.669-6.162c2.495-3.382,2.63-7.08,2.63-8.538
	c0-4.284-1.488-7.365-2.51-8.703c-0.722-1.157-1.443-1.759-1.856-2.194c-3.404-2.811-7.313-3.247-11.438-3.247H60.697z
	 M110.27,329.64c1.195-3.532,2.352-7.064,3.367-10.597c0.722-2.51,1.48-5.005,2.067-7.516l5.847,18.112H110.27 M121.686,301.366
	H110.27L93.893,344.22h11.709l2.202-6.778h16.204l2.202,6.778h11.716L121.686,301.366z M152.266,301.366h-10.853v42.854h10.687
	l-0.421-26.95c1.158,2.225,2.465,4.555,3.773,6.779c1.172,2.194,2.495,4.403,3.938,6.613l8.222,13.558h10.792v-42.854h-10.514
	l0.443,27.537c-2.029-3.968-4.396-7.937-6.599-11.784L152.266,301.366 M182.381,301.366v8.418h11.394v34.436h11.108v-34.436h11.423
	v-8.418H182.381z M249.344,323.748c0,3.547-0.872,6.914-3.367,9.424c-2.766,2.962-6.298,3.232-7.591,3.232
	c-2.923,0-5.561-1.022-7.47-3.082c-1.751-1.924-3.646-5.021-3.646-10.912c0-4.555,1.466-9.846,5.99-12.19
	c0.752-0.451,2.495-1.188,4.832-1.188c0.722,0,2.338,0,4.217,0.736c2.345,1.022,3.667,2.496,4.269,3.232
	C247.871,314.759,249.645,318.442,249.344,323.748 M252.14,340.974c5.381-4.27,8.327-11.349,8.327-17.962
	c0-5.893-2.345-12.792-6.584-17.046c-2.345-2.39-7.455-6.058-15.79-6.058c-10.235,0-15.211,5.592-17.533,8.839
	c-3.803,5.576-4.126,11.619-4.126,13.813c0,2.51,0.323,10.762,6.298,16.805c5.569,5.757,12.882,6.147,15.512,6.147
	C245.556,345.513,249.795,342.897,252.14,340.974 M276.52,301.366h-10.792v42.854h10.672l-0.451-26.95
	c1.354,2.225,2.496,4.555,3.788,6.779c1.203,2.194,2.661,4.403,3.983,6.613l8.192,13.558h10.822v-42.854h-10.552l0.45,27.537
	c-2.044-3.968-4.238-7.937-6.583-11.784L276.52,301.366 M310.024,301.366v42.854h34.541v-8.387h-23.584v-10.326h20.202v-8.087
	h-20.202v-7.816h21.54v-8.237H310.024z"/>
<path d="M412.37,387.284h-4.75v-1.594h11.394v1.594h-4.749v12.656h-1.895V387.284z M420.638,399.955h1.804v-11.874h0.029
	l4.449,11.874h1.624l4.464-11.874h0.03v11.874h1.804v-14.279h-2.601l-4.51,11.994l-4.494-11.994h-2.6V399.955z"/>
<path d="M356.801,300.42c5.366,0,9.71,4.358,9.71,9.725s-4.344,9.71-9.71,9.71s-9.726-4.344-9.726-9.71
	S351.435,300.42,356.801,300.42 M356.801,317.766c4.419,0,7.47-3.353,7.47-7.621c0-4.283-3.051-7.62-7.47-7.62
	c-4.435,0-7.471,3.337-7.471,7.62C349.33,314.413,352.366,317.766,356.801,317.766 M352.982,304.733h4.164
	c2.766,0,4.193,0.872,4.193,3.172c0,1.938-1.232,2.751-2.826,2.916l2.901,4.81h-2.405l-2.75-4.81h-1.188v4.81h-2.09V304.733z
	 M356.936,309.349c1.112,0,2.165-0.166,2.165-1.669c0-1.277-1.248-1.473-2.135-1.473h-1.894v3.142H356.936z"/>
</svg>
